<?xml version="1.0" encoding="UTF-8" standalone="no"?>
<svg width="56px" height="56px" viewBox="0 0 56 56" version="1.1" xmlns="http://www.w3.org/2000/svg" xmlns:xlink="http://www.w3.org/1999/xlink">
    <!-- Generator: Sketch 39.1 (31720) - http://www.bohemiancoding.com/sketch -->
    <title>Page 1</title>
    <desc>Created with Sketch.</desc>
    <defs></defs>
    <g id="Page-1" stroke="none" stroke-width="1" fill="none" fill-rule="evenodd">
        <g id="01_poll_crear_encuesta" transform="translate(-159.000000, -231.000000)" fill="#FFFFFF">
            <path d="M186.317073,278.027252 C186.317073,278.21665 186.393561,278.386016 186.517398,278.509854 C186.641236,278.633691 186.810602,278.710179 187,278.710179 C187.376976,278.710179 187.682927,278.404228 187.682927,278.027252 L187.682927,259.684748 L206.025431,259.684748 C206.404228,259.684748 206.708358,259.378797 206.708358,259.001821 C206.708358,258.623024 206.404228,258.318894 206.025431,258.318894 L187.682927,258.318894 L187.682927,239.974569 C187.682927,239.597593 187.376976,239.291642 187,239.291642 C186.623024,239.291642 186.317073,239.597593 186.317073,239.974569 L186.317073,258.318894 L167.974569,258.318894 C167.595772,258.318894 167.291642,258.623024 167.291642,259.001821 C167.291642,259.189398 167.366309,259.360585 167.490146,259.484423 C167.613984,259.60826 167.785171,259.684748 167.974569,259.684748 L186.317073,259.684748 L186.317073,278.027252 Z M215,259.001821 C215,273.696585 203.526829,285.969236 188.879415,286.939902 C188.863024,286.939902 188.848455,286.941724 188.832065,286.941724 C188.476943,286.941724 188.176455,286.664911 188.15278,286.304325 C188.127285,285.92735 188.411382,285.601366 188.788358,285.57587 C202.720065,284.652553 213.634146,272.979057 213.634146,259.001821 C213.634146,244.314341 201.68748,232.365854 187,232.365854 C174.72735,232.365854 164.095545,240.673886 161.147122,252.569561 C160.628098,254.660228 160.365854,256.82374 160.365854,259.001821 C160.365854,262.241626 160.939512,265.403122 162.070439,268.397073 C163.928,273.330537 167.186016,277.568325 171.491187,280.658797 C171.797138,280.877333 171.868163,281.305301 171.647805,281.611252 C171.429268,281.919024 171.001301,281.988228 170.69535,281.76787 C166.169821,278.52078 162.746081,274.064455 160.792,268.879675 C159.602797,265.730927 159,262.405528 159,259.001821 C159,256.71265 159.274992,254.43987 159.821333,252.239935 C162.920911,239.734179 174.097236,231 187,231 C202.43961,231 215,243.562211 215,259.001821 L215,259.001821 Z" id="Page-1"></path>
        </g>
    </g>
</svg>