<?xml version="1.0" encoding="UTF-8" standalone="no"?>
<svg width="12px" height="21px" viewBox="0 0 12 21" version="1.1" xmlns="http://www.w3.org/2000/svg" xmlns:xlink="http://www.w3.org/1999/xlink">
    <!-- Generator: Sketch 39.1 (31720) - http://www.bohemiancoding.com/sketch -->
    <title>Stroke 3</title>
    <desc>Created with Sketch.</desc>
    <defs></defs>
    <g id="Symbols" stroke="none" stroke-width="1" fill="none" fill-rule="evenodd">
        <g id="head_1/1_contestar" transform="translate(-37.000000, -22.000000)" stroke="#FFFFFF">
            <g id="head_1/1">
                <g id="head">
                    <g id="Page-1" transform="translate(38.000000, 22.000000)">
                        <path d="M9.95263077,20.345808 C9.8714,20.345808 9.79016923,20.314728 9.7284,20.253408 L0.871707692,11.461128 C0.582323077,11.173848 0.423246154,10.790808 0.423246154,10.382568 C0.423246154,9.974328 0.582323077,9.591288 0.871707692,9.304848 L9.7284,0.512568 C9.85193846,0.389088 10.0533231,0.389088 10.1768615,0.512568 C10.3012462,0.635208 10.3012462,0.834288 10.1768615,0.957768 L1.32016923,9.750048 C1.15093846,9.918048 1.05786154,10.143168 1.05786154,10.382568 C1.05786154,10.622808 1.15093846,10.847088 1.32016923,11.015088 L10.1768615,19.808208 C10.3012462,19.930848 10.3012462,20.130768 10.1768615,20.253408 C10.1150923,20.314728 10.0338615,20.345808 9.95263077,20.345808 L9.95263077,20.345808 Z" id="Stroke-3"></path>
                    </g>
                </g>
            </g>
        </g>
    </g>
</svg>