<?xml version="1.0" encoding="UTF-8" standalone="no"?>
<svg width="22px" height="23px" viewBox="0 0 22 23" version="1.1" xmlns="http://www.w3.org/2000/svg" xmlns:xlink="http://www.w3.org/1999/xlink">
    <!-- Generator: Sketch 39.1 (31720) - http://www.bohemiancoding.com/sketch -->
    <title>Page 1</title>
    <desc>Created with Sketch.</desc>
    <defs></defs>
    <g id="Page-1" stroke="none" stroke-width="1" fill="none" fill-rule="evenodd">
        <g id="12" transform="translate(-529.000000, -244.000000)" fill="#FFFFFF">
            <g id="Group" transform="translate(529.000000, 230.000000)">
                <path d="M19.902,26.437 L3.386,35.115 C2.975,35.331 2.585,35.44 2.226,35.44 C1.316,35.44 0.75,34.705 0.75,33.522 L0.75,16.668 C0.75,15.485 1.316,14.75 2.226,14.75 C2.585,14.75 2.975,14.859 3.386,15.075 L19.902,23.753 C20.609,24.125 21.015,24.614 21.015,25.095 C21.015,25.576 20.609,26.065 19.902,26.437 M20.251,23.089 L3.735,14.411 C3.216,14.138 2.708,14 2.226,14 C0.895,14 -3.41060513e-13,15.072 -3.41060513e-13,16.668 L-3.41060513e-13,33.522 C-3.41060513e-13,35.118 0.894,36.19 2.226,36.19 C2.708,36.19 3.216,36.052 3.735,35.779 L20.251,27.101 C21.227,26.588 21.765,25.876 21.765,25.095 C21.765,24.315 21.228,23.603 20.251,23.089" id="Page-1" transform="translate(10.882500, 25.095000) scale(-1, 1) translate(-10.882500, -25.095000) "></path>
            </g>
        </g>
    </g>
</svg>