<?xml version="1.0" encoding="UTF-8" standalone="no"?>
<svg width="22px" height="23px" viewBox="0 0 22 23" version="1.1" xmlns="http://www.w3.org/2000/svg" xmlns:xlink="http://www.w3.org/1999/xlink">
    <!-- Generator: Sketch 39.1 (31720) - http://www.bohemiancoding.com/sketch -->
    <title>Page 1 Copy</title>
    <desc>Created with Sketch.</desc>
    <defs></defs>
    <g id="Page-1" stroke="none" stroke-width="1" fill="none" fill-rule="evenodd">
        <g id="12" transform="translate(-875.000000, -243.000000)" fill="#FFFFFF">
            <g id="Group" transform="translate(529.000000, 243.000000)">
                <path d="M365.902,13.2477 L349.386,21.9257 C348.975,22.1417 348.585,22.2507 348.226,22.2507 C347.316,22.2507 346.75,21.5157 346.75,20.3327 L346.75,3.4787 C346.75,2.2957 347.316,1.5607 348.226,1.5607 C348.585,1.5607 348.975,1.6697 349.386,1.8857 L365.902,10.5637 C366.609,10.9357 367.015,11.4247 367.015,11.9057 C367.015,12.3867 366.609,12.8757 365.902,13.2477 M366.251,9.8997 L349.735,1.2217 C349.216,0.9487 348.708,0.8107 348.226,0.8107 C346.895,0.8107 346,1.8827 346,3.4787 L346,20.3327 C346,21.9287 346.894,23.0007 348.226,23.0007 C348.708,23.0007 349.216,22.8627 349.735,22.5897 L366.251,13.9117 C367.227,13.3987 367.765,12.6867 367.765,11.9057 C367.765,11.1257 367.228,10.4137 366.251,9.8997" id="Page-1-Copy"></path>
            </g>
        </g>
    </g>
</svg>