<?xml version="1.0" encoding="UTF-8" standalone="no"?>
<svg width="51px" height="51px" viewBox="0 0 51 51" version="1.1" xmlns="http://www.w3.org/2000/svg" xmlns:xlink="http://www.w3.org/1999/xlink">
    <!-- Generator: Sketch 39.1 (31720) - http://www.bohemiancoding.com/sketch -->
    <title>Group</title>
    <desc>Created with Sketch.</desc>
    <defs></defs>
    <g id="Page-1" stroke="none" stroke-width="1" fill="none" fill-rule="evenodd">
        <g id="02" transform="translate(-533.000000, -420.000000)">
            <g id="Group-3" transform="translate(534.000000, 421.000000)">
                <g id="Group">
                    <path d="M24.5982456,49.1964912 C11.0131579,49.1964912 0,38.1833333 0,24.5982456 C0,11.0131579 11.0131579,0 24.5982456,0 C38.1833333,0 49.1964912,11.0131579 49.1964912,24.5982456 C49.1964912,38.1833333 38.1833333,49.1964912 24.5982456,49.1964912 Z" id="Stroke-4" stroke="#1B9FD8" stroke-width="1.5"></path>
                    <path d="M5.63552632,24.8983333 C5.63552632,24.9448246 5.63464912,24.992193 5.63464912,25.0395614 C5.63464912,35.1325439 13.8171053,43.3141228 23.9100877,43.3141228 C33.9995614,43.3141228 42.1785088,35.137807 42.1846491,25.0500877 L5.63552632,24.8983333 L5.63552632,24.8983333 Z" id="Stroke-5" stroke="#1B9FD8"></path>
                    <path d="M18.4854386,14.5751754 C18.4854386,15.5620175 17.6854386,16.3620175 16.6985965,16.3620175 C15.7117544,16.3620175 14.9117544,15.5620175 14.9117544,14.5751754 C14.9117544,13.5883333 15.7117544,12.7883333 16.6985965,12.7883333 C17.6854386,12.7883333 18.4854386,13.5883333 18.4854386,14.5751754" id="Fill-6" fill="#1B9FD8"></path>
                    <path d="M34.0395614,14.5751754 C34.0395614,15.5620175 33.2395614,16.3620175 32.2527193,16.3620175 C31.2658772,16.3620175 30.4658772,15.5620175 30.4658772,14.5751754 C30.4658772,13.5883333 31.2658772,12.7883333 32.2527193,12.7883333 C33.2395614,12.7883333 34.0395614,13.5883333 34.0395614,14.5751754" id="Fill-7" fill="#1B9FD8"></path>
                </g>
            </g>
        </g>
    </g>
</svg>