<?xml version="1.0" encoding="UTF-8" standalone="no"?>
<svg width="44px" height="44px" viewBox="0 0 44 44" version="1.1" xmlns="http://www.w3.org/2000/svg" xmlns:xlink="http://www.w3.org/1999/xlink">
    <!-- Generator: Sketch 39.1 (31720) - http://www.bohemiancoding.com/sketch -->
    <title>Page 1</title>
    <desc>Created with Sketch.</desc>
    <defs></defs>
    <g id="Page-1" stroke="none" stroke-width="1" fill="none" fill-rule="evenodd">
        <g id="02" transform="translate(-537.000000, -608.000000)" fill="#009FDB">
            <g id="Group-2" transform="translate(537.000000, 608.000000)">
                <path d="M1.33333333,32.0017778 L42.6666667,32.0017778 L42.6666667,22.6684444 L1.33333333,22.6684444 L1.33333333,32.0017778 Z M3.22666667,1.33333333 L11.3368889,1.33511111 L19.44,1.33511111 C20.4835556,1.33511111 21.3333333,2.18311111 21.3333333,3.22666667 L21.3333333,10.6684444 L1.33333333,10.6684444 L1.33333333,3.22666667 C1.33333333,2.18311111 2.18311111,1.33333333 3.22666667,1.33333333 L3.22666667,1.33333333 Z M1.33333333,21.3351111 L42.6666667,21.3351111 L42.6666667,12.0017778 L1.33333333,12.0017778 L1.33333333,21.3351111 Z M43.3333333,10.6684444 L22.6666667,10.6684444 L22.6666667,3.22666667 C22.6666667,1.44888889 21.2195556,0.00177777778 19.44,0.00177777778 L3.22666667,-4.26325641e-14 C1.44711111,-4.26325641e-14 0,1.44711111 0,3.22666667 L0,38.0017778 C0,38.3697778 0.298666667,38.6684444 0.666666667,38.6684444 C1.03466667,38.6684444 1.33333333,38.3697778 1.33333333,38.0017778 L1.33333333,33.3351111 L42.6666667,33.3351111 L42.6666667,40.7733333 C42.6666667,41.8186667 41.8168889,42.6666667 40.7733333,42.6666667 L3.22666667,42.6666667 C2.85866667,42.6666667 2.56,42.9653333 2.56,43.3333333 C2.56,43.7013333 2.85866667,44 3.22666667,44 L40.7733333,44 C42.5528889,44 44,42.5528889 44,40.7733333 L44,11.3351111 C44,10.9671111 43.7013333,10.6684444 43.3333333,10.6684444 L43.3333333,10.6684444 Z" id="Page-1"></path>
            </g>
        </g>
    </g>
</svg>